<?xml version="1.0" encoding="UTF-8" standalone="no"?>
<svg
   xmlns:dc="http://purl.org/dc/elements/1.1/"
   xmlns:cc="http://creativecommons.org/ns#"
   xmlns:rdf="http://www.w3.org/1999/02/22-rdf-syntax-ns#"
   xmlns:svg="http://www.w3.org/2000/svg"
   xmlns="http://www.w3.org/2000/svg"
   xmlns:sodipodi="http://sodipodi.sourceforge.net/DTD/sodipodi-0.dtd"
   xmlns:inkscape="http://www.inkscape.org/namespaces/inkscape"
   height="512pt"
   viewBox="0 0 512 512"
   width="512pt"
   version="1.1"
   id="svg36"
   sodipodi:docname="terminal.svg"
   inkscape:version="1.0.1 (3bc2e813f5, 2020-09-07)">
  <metadata
     id="metadata42">
    <rdf:RDF>
      <cc:Work
         rdf:about="">
        <dc:format>image/svg+xml</dc:format>
        <dc:type
           rdf:resource="http://purl.org/dc/dcmitype/StillImage" />
      </cc:Work>
    </rdf:RDF>
  </metadata>
  <defs
     id="defs40" />
  <sodipodi:namedview
     pagecolor="#ffffff"
     bordercolor="#666666"
     borderopacity="1"
     objecttolerance="10"
     gridtolerance="10"
     guidetolerance="10"
     inkscape:pageopacity="0"
     inkscape:pageshadow="2"
     inkscape:window-width="1920"
     inkscape:window-height="1017"
     id="namedview38"
     showgrid="false"
     inkscape:zoom="0.27575684"
     inkscape:cx="-652.28005"
     inkscape:cy="290.86248"
     inkscape:window-x="-8"
     inkscape:window-y="-8"
     inkscape:window-maximized="1"
     inkscape:current-layer="svg36" />
  <path
     d="m512 114.601562v336.796876c0 33.410156-27.191406 60.601562-60.601562 60.601562h-390.796876c-33.410156 0-60.601562-27.191406-60.601562-60.601562v-336.796876l255.71875-20zm0 0"
     fill="#65e86d"
     id="path2"
     style="fill:#ececec;fill-opacity:1" />
  <path
     d="m512 60.601562v54h-512v-54c0-33.410156 27.191406-60.601562 60.601562-60.601562h390.796876c33.410156 0 60.601562 27.191406 60.601562 60.601562zm0 0"
     fill="#00429b"
     id="path6"
     style="fill:#2d44c7;fill-opacity:1" />
  <path
     d="m81.171875 42.300781h-15.300781c-8.28125 0-15 6.714844-15 15 0 8.285157 6.71875 15 15 15h15.300781c8.285156 0 15-6.714843 15-15 0-8.285156-6.714844-15-15-15zm0 0"
     fill="#fff"
     id="path10" />
  <path
     d="m136.660156 42.300781h-15.300781c-8.285156 0-15 6.714844-15 15 0 8.285157 6.714844 15 15 15h15.300781c8.285156 0 15-6.714843 15-15 0-8.285156-6.714844-15-15-15zm0 0"
     fill="#fff"
     id="path12" />
  <path
     d="m192.011719 42.300781h-15.300781c-8.285157 0-15 6.714844-15 15 0 8.285157 6.714843 15 15 15h15.300781c8.28125 0 15-6.714843 15-15 0-8.285156-6.71875-15-15-15zm0 0"
     fill="#fff"
     id="path14" />
  <path
     d="m416.859375 181.480469c0 8.28125-6.71875 15-15 15h-335.988281c-8.28125 0-15-6.71875-15-15s6.71875-15 15-15h335.988281c8.28125 0 15 6.71875 15 15zm0 0"
     fill="#00429b"
     id="path16"
     style="fill:#2d44c7;fill-opacity:1" />
  <path
     d="m461.558594 241.480469c0 8.28125-6.71875 15-15 15h-350.617188c-8.28125 0-15-6.71875-15-15s6.71875-15 15-15h350.617188c8.28125 0 15 6.71875 15 15zm0 0"
     fill="#00429b"
     id="path18"
     style="fill:#2d44c7;fill-opacity:1" />
  <path
     d="m385.179688 301.378906c0 8.28125-6.71875 15-15 15h-304.308594c-8.28125 0-15-6.71875-15-15 0-8.289062 6.71875-15 15-15h304.308594c8.28125 0 15 6.710938 15 15zm0 0"
     fill="#00429b"
     id="path20"
     style="fill:#2d44c7;fill-opacity:1" />
  <path
     d="m200.394531 346.375h-104.453125c-8.285156 0-15 6.714844-15 15s6.714844 15 15 15h104.453125c8.28125 0 15-6.714844 15-15s-6.71875-15-15-15zm0 0"
     fill="#00429b"
     id="path22"
     style="fill:#2d44c7;fill-opacity:1" />
  <g
     fill="#002659"
     id="g34">
    <path
       d="m406.921875 352.402344c-5.855469-5.855469-15.355469-5.855469-21.210937 0-5.859376 5.859375-5.859376 15.355468 0 21.214844l32.570312 32.570312-32.570312 32.574219c-5.859376 5.855469-5.859376 15.351562 0 21.210937 2.929687 2.929688 6.765624 4.394532 10.605468 4.394532 3.835938 0 7.675782-1.464844 10.605469-4.394532l36.386719-36.386718c9.59375-9.59375 9.59375-25.203126 0-34.796876zm0 0"
       id="path24"
       style="fill:#dd2c00;fill-opacity:1" />
    <path
       d="m346.878906 352.402344c-5.855468-5.855469-15.355468-5.855469-21.210937 0l-36.386719 36.386718c-9.59375 9.59375-9.59375 25.203126 0 34.796876l36.386719 36.386718c2.929687 2.929688 6.765625 4.394532 10.605469 4.394532 3.835937 0 7.675781-1.464844 10.605468-4.394532 5.859375-5.859375 5.859375-15.355468 0-21.210937l-32.570312-32.574219 32.570312-32.570312c5.859375-5.859376 5.859375-15.355469 0-21.214844zm0 0"
       id="path26"
       style="fill:#dd2c00;fill-opacity:1" />
  </g>
</svg>
